<?xml version="1.0" ?>
<!-- Uploaded to: SVG Repo, www.svgrepo.com, Generator: SVG Repo Mixer Tools -->
<svg fill="#000000" width="800px" height="800px" viewBox="0 0 64 64" xmlns="http://www.w3.org/2000/svg">
<g id="joker">
<path d="M61.9326,24.6992l-2.2607-1.6963a.6631.6631,0,0,1-.208-.8105l.5683-1.2529a2.6691,2.6691,0,0,0-1.9433-3.7266l-2.5244-.47a.68.68,0,0,1-.2774-.1211l-3.5732-2.6612a2.67,2.67,0,0,0-3.4141.1866l-1.7881,1.665a.6813.6813,0,0,1-.1728.1172l-2.2376,1.0414A20.5922,20.5922,0,0,0,32,13a20.3488,20.3488,0,0,0-9.2429,2.2288l-2.9505-1.9622a2.6557,2.6557,0,0,0-.874-.3779l-2.9336-.6836a2.6684,2.6684,0,0,0-2.24.4922l-4.002,3.1045a.6678.6678,0,0,1-.9531-.1387,2.6693,2.6693,0,0,0-3.7656-.5869l-3.6358,2.708a.9991.9991,0,0,0-.3584,1.0947l1.82,5.9326a.6675.6675,0,0,1-.0254.46L1.7207,27.876a2.6555,2.6555,0,0,0,1.3262,3.4726l1.5674.73A.6693.6693,0,0,1,5,32.6846v3.2929a2.6571,2.6571,0,0,0,1.8779,2.5489l3.2456,1.0077C11.288,51.5806,20.6537,61,32,61c12.1309,0,22-10.7666,22-24,0-.1359-.0073-.27-.0094-.4053l1.0055.3741a2.6473,2.6473,0,0,0,.9307.1669,2.6766,2.6766,0,0,0,1.1279-.248l.9717-.4522a2.6735,2.6735,0,0,0,1.041-.8652l1.4912-2.08a.6588.6588,0,0,1,.2617-.2168l.6358-.2968A2.6764,2.6764,0,0,0,63,30.5566V26.835A2.6831,2.6831,0,0,0,61.9326,24.6992ZM32,59c-11.0283,0-20-9.8691-20-22s8.9717-22,20-22,20,9.8691,20,22S43.0283,59,32,59Z"/>
<path d="M24.5,32A5.5,5.5,0,1,0,19,26.5,5.5069,5.5069,0,0,0,24.5,32Zm0-9a3.4952,3.4952,0,0,1,2.4948,5.948,1.9976,1.9976,0,1,0-3.8542.777A3.5,3.5,0,0,1,24.5,23Z"/>
<path d="M39.5,32A5.5,5.5,0,1,0,34,26.5,5.5069,5.5069,0,0,0,39.5,32Zm0-9a3.5,3.5,0,0,1,1.3594,6.725,1.9963,1.9963,0,1,0-3.8542-.777A3.4952,3.4952,0,0,1,39.5,23Z"/>
<path d="M24.3379,7.8184a1,1,0,0,0,1.4141,0l.767-.7671.7671.7671A1,1,0,1,0,28.7,6.4043l-.7671-.7671L28.7,4.87a1,1,0,0,0-1.4141-1.414l-.7671.767-.767-.767A1,1,0,0,0,24.3379,4.87l.7671.7671-.7671.7671A1,1,0,0,0,24.3379,7.8184Z"/>
<circle cx="39" cy="7" r="1"/>
<path d="M55,51a3,3,0,1,0,3,3A3.0033,3.0033,0,0,0,55,51Zm0,4a1,1,0,1,1,1-1A1.0006,1.0006,0,0,1,55,55Z"/>
<path d="M44.6973,32.0459a.9645.9645,0,0,0-.9961.6807c-.734,2.1843-2.8923,4.09-5.7813,5.207a6,6,0,1,0-11.84-.002c-2.89-1.1163-5.046-3.0161-5.781-5.205a.9683.9683,0,0,0-.9961-.6807,1,1,0,0,0-.9257.7725,14,14,0,1,0,27.246,0A1,1,0,0,0,44.6973,32.0459ZM42.6888,37.468A11.9032,11.9032,0,0,1,41,39.9589V38.6713A12.7784,12.7784,0,0,0,42.6888,37.468ZM39,45.726a11.9853,11.9853,0,0,1-2,1.168V45.0808a13.8872,13.8872,0,0,0,2-.9426Zm-4-3.5378v1.4361a12.0944,12.0944,0,0,1-2,.3333V42.91A5.9508,5.9508,0,0,0,35,42.1882Zm2-1.8449a17.0116,17.0116,0,0,0,2-.6726v2.0874a11.9161,11.9161,0,0,1-2,1.1641Zm-6,3.6125a11.9076,11.9076,0,0,1-2-.343V42.1882a5.9508,5.9508,0,0,0,2,.7215Zm-4-1.0544a12.0879,12.0879,0,0,1-2-1.1757V39.6693a17.1135,17.1135,0,0,0,2,.671Zm-2,1.2068a14.0591,14.0591,0,0,0,2,.953v1.833a11.9922,11.9922,0,0,1-2-1.168ZM29,45.66a13.884,13.884,0,0,0,2,.2961V47.95a11.9066,11.9066,0,0,1-2-.3442Zm4,.2979a14.0917,14.0917,0,0,0,2-.2887v1.9366a11.9066,11.9066,0,0,1-2,.3442ZM23,38.6714V39.926A11.9815,11.9815,0,0,1,21.3334,37.49,12.7763,12.7763,0,0,0,23,38.6714Zm-2.1193,1.813A14.1132,14.1132,0,0,0,23,42.7008v1.213A12.0072,12.0072,0,0,1,20.8807,40.4844ZM41,43.9133V42.7391a13.8708,13.8708,0,0,0,2.0832-2.16A12.0121,12.0121,0,0,1,41,43.9133Z"/>
</g>
</svg>